<svg fill="#fff" id="Layer_1" enable-background="new 0 0 511.448 511.448" height="512" viewBox="0 0 511.448 511.448" width="512" xmlns="http://www.w3.org/2000/svg"><path d="m436.507 74.94c-99.913-99.913-261.64-99.927-361.567 0-99.913 99.913-99.928 261.64 0 361.567 99.913 99.913 261.639 99.928 361.567 0 99.914-99.911 99.93-261.639 0-361.567zm-180.783 394.451c-117.816 0-213.667-95.851-213.667-213.666s95.851-213.667 213.667-213.667 213.667 95.851 213.667 213.667-95.851 213.666-213.667 213.666z"/><path d="m319.724 276.724c11.598 0 21-9.402 21-21s-9.402-21-21-21h-26.91l44.917-74.862c5.967-9.945 2.742-22.844-7.203-28.812-9.944-5.967-22.846-2.743-28.813 7.203l-45.992 76.654-45.993-76.654c-5.968-9.945-18.868-13.171-28.812-7.203-9.945 5.967-13.17 18.867-7.203 28.812l44.917 74.862h-26.91c-11.598 0-21 9.402-21 21s9.402 21 21 21h43v22h-43c-11.598 0-21 9.402-21 21s9.402 21 21 21h43v21.667c0 11.598 9.402 21 21 21s21-9.402 21-21v-21.667h43c11.598 0 21-9.402 21-21s-9.402-21-21-21h-43v-22z"/></svg>